<svg xmlns="http://www.w3.org/2000/svg" viewBox="0 0 100 100" x="0px" y="0px"><path d="M66.818,55.218c-3.178,0-5.77-2.59-5.77-5.771c0-3.198,2.592-5.784,5.77-5.784c3.195,0,5.787,2.586,5.787,5.784  C72.604,52.631,70.014,55.218,66.818,55.218z"/><path d="M40.152,51.041c-3.177,0-5.769-2.59-5.769-5.771c0-3.197,2.592-5.784,5.769-5.784c3.196,0,5.788,2.587,5.788,5.784  C45.937,48.454,43.348,51.041,40.152,51.041z"/><path d="M87.236,92.904H76.025c0,0,4.223-16.877,4.01-25.863c-0.105-4.683-1.566-7.713-1.566-7.713s-2.605-6.446-9.008-2.871  c0,0-2.727,1.04-2.795,7.219c-0.094,0.818-0.117,2.192-0.094,3.865H59.08l0.006-48.18L36.649,0.648L14.1,19.396l0.018,79.891h44.921  l0.037-25.399h0.875v-0.022h11.998v1.865h-5.035c0.525,9.064,1.451,19.8,1.451,19.8c0.008,1.924,1.648,3.757,3.564,3.757h15.467  c1.918,0,3.518-1.138,3.518-3.063C90.914,94.062,89.162,92.904,87.236,92.904z M30.412,13.925h4.246V9.68h3.588v4.246h4.247v3.588  h-4.247v9.047h-3.588v-9.047h-4.246V13.925z M51.812,66.84H51.81h-1.992V54.53c0-1.506-1.222-2.721-2.724-2.721  c-1.506,0-2.727,1.218-2.727,2.721v7.763c-1.05-3.456-2.032-8.592-6.298-9.941c-6.921-2.191-13.402,5.097-16.625,9.729v-31.42  h30.369V66.84z"/></svg>