<svg xmlns="http://www.w3.org/2000/svg" viewBox="0 0 48 48" x="0px" y="0px"><g data-name="Layer 5"><path d="M24,13a4,4,0,1,0,4,4A4,4,0,0,0,24,13Zm0,6a2,2,0,1,1,2-2A2,2,0,0,1,24,19Z"/><path d="M38.63,12.23A1,1,0,0,0,37.8,12l-7.71,1.54a6,6,0,0,0-.49-.75l3.11-3.1a1,1,0,0,0-1.42-1.42l-3.1,3.11a6,6,0,0,0-.75-.49L29,3.2a1,1,0,0,0-.21-.83A1,1,0,0,0,28,2H20a1,1,0,0,0-.77.37A1,1,0,0,0,19,3.2l1.54,7.71a6,6,0,0,0-.75.49l-3.1-3.11a1,1,0,0,0-1.42,1.42l3.11,3.1a6,6,0,0,0-.49.75L10.2,12a1,1,0,0,0-.83.21A1,1,0,0,0,9,13v8a1,1,0,0,0,.37.77,1,1,0,0,0,.83.21l7.71-1.54a6,6,0,0,0,.49.75l-3.11,3.1a1,1,0,0,0,0,1.42,1,1,0,0,0,1.42,0l3.1-3.11a6,6,0,0,0,.75.49L19,30.8a1,1,0,0,0,.21.83A1,1,0,0,0,20,32h1v8H19a3,3,0,0,0-3,3v1H13a1,1,0,0,0,0,2H35a1,1,0,0,0,0-2H32V43a3,3,0,0,0-3-3H27V32h1a1,1,0,0,0,.77-.37A1,1,0,0,0,29,30.8l-1.54-7.71a6,6,0,0,0,.75-.49l3.1,3.11a1,1,0,0,0,1.42,0,1,1,0,0,0,0-1.42l-3.11-3.1a6,6,0,0,0,.49-.75L37.8,22a1,1,0,0,0,.83-.21A1,1,0,0,0,39,21V13A1,1,0,0,0,38.63,12.23ZM21.22,30l1.23-6.18a6.76,6.76,0,0,0,3.1,0L26.78,30Zm4.7-8.38a5,5,0,1,1,1.61-1.09A4.83,4.83,0,0,1,25.92,21.62ZM26.78,4l-1.23,6.18a7,7,0,0,0-3.1,0L21.22,4ZM11,14.22l6.18,1.23a6.76,6.76,0,0,0,0,3.1L11,19.78ZM30,43v1H18V43a1,1,0,0,1,1-1H29A1,1,0,0,1,30,43Zm-5-3H23V32h2ZM37,19.78l-6.18-1.23a6.76,6.76,0,0,0,0-3.1L37,14.22Z"/></g></svg>